<?xml version="1.0"?>
<svg xmlns="http://www.w3.org/2000/svg" xmlns:xlink="http://www.w3.org/1999/xlink" version="1.1" id="Layer_1" x="0px" y="0px" viewBox="0 0 512 512" style="enable-background:new 0 0 512 512;" xml:space="preserve" width="512px" height="512px" class=""><g><path style="fill:#9C27E5" d="M255,429.856v74.181c117.1,0,211.946-94.846,211.946-211.946S372.1,80.146,255,80.146h-84.779  l26.494-26.494l-42.389-42.389L48.354,117.236l105.972,105.972l42.389-42.389l-26.494-26.494H255  c76.088,0,137.765,61.676,137.765,137.765S331.088,429.856,255,429.856z" data-original="#00B4D7" class="" data-old_color="#00B4D7"/><g>
	<path style="fill:#9C27E5" d="M127.299,122.534H255c76.088,0,137.765,61.676,137.765,137.765c0,5.385-0.387,10.673-0.988,15.896   C383.886,207.607,325.704,154.327,255,154.327H158.96L127.299,122.534z" data-original="#0093C4" class="" data-old_color="#0093C4"/>
	<path style="fill:#9C27E5" d="M255,472.245c111.733,0,202.994-86.408,211.144-196.05c0.391,5.266,0.802,10.53,0.802,15.896   c0,117.1-94.846,211.946-211.946,211.946L255,472.245L255,472.245z" data-original="#0093C4" class="" data-old_color="#0093C4"/>
</g><path d="M255,512h-7.964v-90.109H255c71.572,0,129.8-58.229,129.8-129.801S326.572,162.29,255,162.29h-65.551l18.529,18.53  l-53.651,53.652L37.09,117.236L154.327,0l53.651,53.652l-18.529,18.53H255c58.762,0,113.993,22.868,155.517,64.393  c41.523,41.524,64.393,96.754,64.393,155.517s-22.868,113.993-64.393,155.517C368.993,489.132,313.762,512,255,512z   M262.964,437.604v58.317c51.521-1.961,99.655-22.941,136.29-59.576c38.516-38.516,59.728-89.747,59.728-144.254  s-21.212-105.738-59.728-144.254C360.739,109.321,309.508,88.11,255,88.11H150.996l34.457-34.458l-31.127-31.127l-94.71,94.71  l94.71,94.71l31.127-31.127l-34.457-34.458H255c80.355,0,145.728,65.373,145.728,145.729  C400.729,369.773,339.629,433.454,262.964,437.604z" data-original="#000000" class="" style="fill:#C3EDEB" data-old_color="#000000"/><rect x="109.265" y="53.268" transform="matrix(-0.7071 -0.7071 0.7071 -0.7071 135.9623 237.7887)" style="fill:#9C27E5" width="15.928" height="74.935" data-original="#FFFFFF" class="active-path" data-old_color="#FFFFFF"/></g> </svg>
